# xmcd
#
# Track frame offsets: 
#        150
#        15300
#        30337
#        44812
#        60037
#        74587
#        90112
#        109237
#        127162
#        143587
#        159937
#        177164
#        192614
#        209789
#
# Disc length: 3060 seconds
#
# Revision: 1
# Processed by: cddbd v1.5.2PL0 Copyright (c) Steve Scherf et al.
# Submitted via: ExactAudioCopyFreeDBPlugin 1.0
#
DISCID=be0bf20e
DTITLE=Ideaali and Jay Who? - Piste.
DYEAR=2009
DGENRE=Rap
TTITLE0=Piste
TTITLE1=Älä Särje Sitä
TTITLE2=Ongelmii
TTITLE3=Ei Vielä
TTITLE4=Pysähdy
TTITLE5=Jos Kuljet Siellä
TTITLE6=Noidankehä (feat. Iisakki)
TTITLE7=Niin Pienii (feat. Iisakki)
TTITLE8=Hengittää (feat. Jannew and Ralphe (Kymppilinja))
TTITLE9=Tän Kerran
TTITLE10=Ohi
TTITLE11=Yhtä Täs
TTITLE12=Lähtöjä
TTITLE13=Täältä (feat. Iisakki)
EXTD=
EXTT0=
EXTT1=
EXTT2=
EXTT3=
EXTT4=
EXTT5=
EXTT6=
EXTT7=
EXTT8=
EXTT9=
EXTT10=
EXTT11=
EXTT12=
EXTT13=
PLAYORDER=
